<svg width="29" height="31" viewBox="0 0 29 31" fill="none" xmlns="http://www.w3.org/2000/svg">
<g clip-path="url(#clip0_1_4)">
<path d="M29 4.84375V7.75C29 10.4262 22.5074 12.5938 14.5 12.5938C6.49263 12.5938 0 10.4262 0 7.75V4.84375C0 2.16758 6.49263 0 14.5 0C22.5074 0 29 2.16758 29 4.84375ZM25.4527 12.9994C26.7991 12.5514 28.0355 11.9762 29 11.2678V17.4375C29 20.1137 22.5074 22.2812 14.5 22.2812C6.49263 22.2812 0 20.1137 0 17.4375V11.2678C0.964509 11.9822 2.20089 12.5514 3.54732 12.9994C6.45379 13.9682 10.3248 14.5312 14.5 14.5312C18.6752 14.5312 22.5462 13.9682 25.4527 12.9994ZM0 20.9553C0.964509 21.6697 2.20089 22.2389 3.54732 22.6869C6.45379 23.6557 10.3248 24.2188 14.5 24.2188C18.6752 24.2188 22.5462 23.6557 25.4527 22.6869C26.7991 22.2389 28.0355 21.6637 29 20.9553V26.1562C29 28.8324 22.5074 31 14.5 31C6.49263 31 0 28.8324 0 26.1562V20.9553Z" fill="white"/>
</g>
<defs>
<clipPath id="clip0_1_4">
<rect width="29" height="31" fill="white"/>
</clipPath>
</defs>
</svg>
